<svg width="40" height="41" viewBox="0 0 40 41" fill="none" xmlns="http://www.w3.org/2000/svg">
<rect y="0.832397" width="40" height="40.0771" rx="8" fill="#F9AA01"/>
<path d="M21.9708 8.37008C21.1573 7.67115 19.8362 7.67115 19.0227 8.37008L8.61011 17.3164C7.79663 18.0153 7.79663 19.1503 8.61011 19.8493C9.4236 20.5482 10.7447 20.5482 11.5582 19.8493L18.4175 13.9503V31.1048C18.4175 32.0945 19.3481 32.8941 20.5 32.8941C21.6519 32.8941 22.5825 32.0945 22.5825 31.1048V13.9503L29.4418 19.8437C30.2553 20.5426 31.5764 20.5426 32.3899 19.8437C33.2034 19.1448 33.2034 18.0097 32.3899 17.3108L21.9773 8.36449L21.9708 8.37008Z" fill="#1B1426"/>
</svg>
